<?xml version="1.0" encoding="utf-8"?>
<!-- Generator: Adobe Illustrator 25.4.1, SVG Export Plug-In . SVG Version: 6.00 Build 0)  -->
<svg version="1.1" id="图层_1" xmlns="http://www.w3.org/2000/svg" xmlns:xlink="http://www.w3.org/1999/xlink" x="0px" y="0px"
	 viewBox="0 0 50 50" style="enable-background:new 0 0 50 50;" xml:space="preserve">
<path d="M17.5,10.7c0.8,0,1.3-0.6,1.3-1.2c0-0.6-0.6-1.1-1.3-1.1c-0.7,0-1.4,0.5-1.4,1.2C16.2,10.1,16.8,10.7,17.5,10.7z M32.5,10.7
	c0.7,0,1.4-0.5,1.4-1.2c0-0.6-0.6-1.2-1.4-1.2c-0.8,0-1.3,0.6-1.3,1.2C31.2,10.1,31.8,10.6,32.5,10.7z M3.7,16.2
	c2,0,3.6,1.4,3.6,3.1v12.9c0,1.7-1.6,3.1-3.6,3.1S0,33.9,0,32.2V19.2C0,17.6,1.6,16.2,3.7,16.2L3.7,16.2z M41.3,16.8v20
	c0,1.8-1.7,3.3-3.9,3.3h-2.7v6.8c0,1.7-1.6,3.1-3.7,3.1s-3.7-1.4-3.7-3.1v-6.8h-4.9v6.8c0,1.7-1.6,3.1-3.7,3.1c-2,0-3.6-1.4-3.6-3.1
	l0-6.8h-2.6c-2.2,0-3.9-1.5-3.9-3.3c0,0,0,0,0,0v-20H41.3L41.3,16.8z M33.1,4.6c5,2.2,8.3,6.3,8.3,11.1H8.6c0-4.8,3.4-8.9,8.4-11.1
	l-2.5-3.9c-0.1-0.2-0.1-0.5,0.2-0.6c0,0,0,0,0,0c0.2-0.1,0.6,0,0.7,0.2l2.6,4C20,3.4,22.4,2.9,25,2.9s5,0.5,7.1,1.3l2.6-4
	C34.8,0,35.2,0,35.4,0c0.2,0.1,0.3,0.4,0.2,0.6c0,0,0,0,0,0L33.1,4.6z M50,19.2v12.9c0,1.7-1.6,3.1-3.7,3.1c-2,0-3.6-1.4-3.6-3.1
	V19.2c0-1.7,1.6-3.1,3.6-3.1c0,0,0,0,0,0C48.4,16.2,50,17.5,50,19.2L50,19.2z"/>
</svg>
