<?xml version="1.0" encoding="utf-8"?>
<!-- Generator: Adobe Illustrator 25.4.1, SVG Export Plug-In . SVG Version: 6.00 Build 0)  -->
<svg version="1.1" id="图层_1" xmlns="http://www.w3.org/2000/svg" xmlns:xlink="http://www.w3.org/1999/xlink" x="0px" y="0px"
	 viewBox="0 0 50 50" style="enable-background:new 0 0 50 50;" xml:space="preserve">
<path d="M40.4,26.6c-0.1-6.3,5.8-9.4,6.1-9.5c-3.3-4.3-8.5-4.9-10.3-5c-4.4-0.4-8.6,2.3-10.8,2.3s-5.7-2.2-9.3-2.2
	c-4.8,0.1-9.2,2.5-11.7,6.3c-5,7.7-1.3,19,3.6,25.2c2.4,3,5.2,6.4,8.9,6.3c3.6-0.1,4.9-2,9.2-2s5.5,2,9.3,2c3.8-0.1,6.3-3.1,8.6-6.1
	c2.7-3.5,3.8-6.9,3.9-7.1C47.9,36.6,40.5,34.1,40.4,26.6L40.4,26.6L40.4,26.6z M33.3,8c2-2.1,3.3-5.1,2.9-8
	c-2.8,0.1-6.3,1.7-8.3,3.8c-1.8,1.9-3.4,4.9-3,7.7C28.1,11.7,31.3,10.1,33.3,8L33.3,8L33.3,8z"/>
</svg>
