<?xml version="1.0" encoding="utf-8"?>
<!-- Generator: Adobe Illustrator 25.4.1, SVG Export Plug-In . SVG Version: 6.00 Build 0)  -->
<svg version="1.1" id="图层_1" xmlns="http://www.w3.org/2000/svg" xmlns:xlink="http://www.w3.org/1999/xlink" x="0px" y="0px"
	 viewBox="0 0 25 25" style="enable-background:new 0 0 25 25;" xml:space="preserve">
<path d="M12.5,23.2c5.9,0,10.7-4.8,10.7-10.7S18.4,1.8,12.5,1.8S1.8,6.6,1.8,12.5l0,0C1.8,18.4,6.6,23.2,12.5,23.2z M12.5,25
	C5.6,25,0,19.4,0,12.5S5.6,0,12.5,0S25,5.6,25,12.5S19.4,25,12.5,25L12.5,25z"/>
<path d="M13.8,12.5l3.5,3.5c0.4,0.4,0.4,0.9,0,1.3c-0.4,0.4-0.9,0.4-1.3,0l-3.5-3.5L9,17.3c-0.4,0.4-0.9,0.4-1.3,0
	c-0.4-0.4-0.4-0.9,0-1.3l0,0l3.5-3.5L7.7,9C7.3,8.6,7.3,8,7.7,7.7C8,7.3,8.6,7.3,9,7.7l3.5,3.5L16,7.7c0.4-0.4,0.9-0.4,1.3,0
	c0.4,0.4,0.4,0.9,0,1.3l0,0L13.8,12.5z"/>
</svg>
