<?xml version="1.0" encoding="utf-8"?>
<!-- Generator: Adobe Illustrator 25.4.1, SVG Export Plug-In . SVG Version: 6.00 Build 0)  -->
<svg version="1.1" id="图层_1" xmlns="http://www.w3.org/2000/svg" xmlns:xlink="http://www.w3.org/1999/xlink" x="0px" y="0px"
	 viewBox="0 0 100 100" style="enable-background:new 0 0 100 100;" xml:space="preserve">
<path d="M72.1,100H24c-4.3,0-7.9-0.6-10.9-1.7c-3-1.2-5.6-2.8-7.5-4.7c-2-2-3.4-4.3-4.3-7C0.4,84,0,81.3,0,78.5
	c0-2.9,0.6-5.6,1.7-8.2c1.1-2.5,2.6-4.8,4.4-6.7c1.9-1.9,4.1-3.5,6.6-4.6c2.5-1.1,5.3-1.7,8.1-1.7c4.1,0,7.8,1.1,11.1,3.2
	c1.6,1,3,2.2,4.2,3.6c0.3-1.5,0.7-3,1.3-4.5c1.2-3.4,3.3-6.6,6-9.3c2.7-2.8,6.3-5,10.6-6.7c4.3-1.7,9.5-2.5,15.6-2.5
	c4.7,0,8.8,0.6,12.1,1.8c3.4,1.2,6.3,2.8,8.6,4.9c2.3,2,4.1,4.4,5.5,7c1.3,2.5,2.2,5.1,2.9,7.8c0.6,2.6,1,5.1,1.2,7.5
	c0.2,2.4,0.2,4.5,0.2,6.4c0,3-0.7,6-2,8.8c-1.3,2.8-3.2,5.4-5.6,7.5C90,95,87.1,96.7,83.7,98C80.2,99.3,76.4,100,72.1,100z
	 M20.8,61.5c-2.3,0-4.5,0.4-6.5,1.3c-2,0.9-3.8,2.1-5.3,3.7c-1.5,1.6-2.7,3.4-3.6,5.5C4.5,74,4,76.2,4,78.5c0,2.4,0.4,4.6,1,6.7
	c0.7,2,1.8,3.8,3.3,5.4c1.5,1.6,3.6,2.9,6.1,3.8c2.5,1,5.7,1.5,9.5,1.5h48.1c3.8,0,7.2-0.6,10.1-1.7c3-1.1,5.5-2.6,7.5-4.4
	c2-1.8,3.6-3.9,4.6-6.2c1.1-2.3,1.6-4.7,1.6-7.1c0-1.8-0.1-3.8-0.2-6.1c-0.2-2.2-0.5-4.5-1.1-6.9c-0.5-2.3-1.4-4.6-2.5-6.8
	c-1.1-2.2-2.6-4.1-4.5-5.8c-1.9-1.7-4.4-3-7.3-4.1c-2.9-1.1-6.6-1.6-10.8-1.6c-5.6,0-10.4,0.8-14.2,2.2c-3.8,1.5-6.9,3.4-9.2,5.8
	c-2.3,2.3-4,5-5,7.9c-1.1,2.9-1.6,5.9-1.6,8.8c0,1.1-0.9,2-2,2c-0.8,0-1.5-0.4-1.8-1.1c-1.4-2.8-3.4-5-6.1-6.8
	C27.1,62.4,24.1,61.5,20.8,61.5z"/>
<path d="M25.9,44c-3.5,0-6.8-0.8-9.9-2.4c-2.6-1.3-4.9-3.1-6.8-5.3l-3.1-3.7l4.8,0.4c0.4,0,0.9,0,1.3,0c6.7,0,12.8-3.7,15.9-9.7
	c3.3-6.4,2.4-14.1-2.3-19.6L22.8,0l4.8,0.3c2.9,0.2,5.7,1,8.3,2.3c5.2,2.6,9.1,7.2,10.9,12.7c1.8,5.6,1.3,11.5-1.3,16.7
	c-1.9,3.7-4.7,6.7-8.2,8.8C33.8,42.9,29.9,44,25.9,44z M60.7,36.9c0.7,0.5,1.4,0.9,2.1,1.3c2.5,1.3,5.3,2,8.1,2
	c6.7,0,12.8-3.7,15.9-9.7c2.2-4.2,2.5-9.1,1.1-13.6c-1.5-4.5-4.6-8.2-8.9-10.4c-0.7-0.4-1.5-0.7-2.3-1c3.1,6.1,3.2,13.5,0,19.8
	c-1.9,3.7-4.7,6.7-8.2,8.8C66.1,35.5,63.5,36.5,60.7,36.9z"/>
</svg>
