<?xml version="1.0" encoding="utf-8"?>
<!-- Generator: Adobe Illustrator 25.4.1, SVG Export Plug-In . SVG Version: 6.00 Build 0)  -->
<svg version="1.1" id="图层_1" xmlns="http://www.w3.org/2000/svg" xmlns:xlink="http://www.w3.org/1999/xlink" x="0px" y="0px"
	 viewBox="0 0 100 100" style="enable-background:new 0 0 100 100;" xml:space="preserve">
<path d="M79.9,39.7l9.5-10.5l-8.1-8.9l-9.5,10.5C74.9,33.2,77.6,36.2,79.9,39.7z M86.6,57.5c0.3,2.1,0.4,4.2,0.4,6.3
	c0,2.1-0.1,4.3-0.4,6.3H100V57.5C100,57.5,86.6,57.5,86.6,57.5z M55.7,23.2V8.5H44.3v14.7c1.8-0.3,3.7-0.5,5.6-0.5
	C51.8,22.7,53.8,22.9,55.7,23.2z M28,30.6l-9.4-10.3l-8.1,8.9l9.3,10.3C22.2,36.1,24.9,33.1,28,30.6z M12.7,63.8
	c0-2.2,0.1-4.3,0.4-6.3H0v12.6h13.2C12.9,68.1,12.7,65.9,12.7,63.8z M21.9,70.2h56c0.4-2.1,0.6-4.2,0.6-6.4
	c0-17.4-12.8-31.6-28.6-31.6c-15.7,0-28.6,14.2-28.6,31.6C21.3,66,21.5,68.1,21.9,70.2z M88.6,80.1H11.2c-3.3,0-6,3-6,6.6
	c0,3.6,2.7,6.6,6,6.6h77.4c3.3,0,6-3,6-6.6S91.9,80.1,88.6,80.1z"/>
</svg>
