<?xml version="1.0" encoding="utf-8"?>
<!-- Generator: Adobe Illustrator 25.4.1, SVG Export Plug-In . SVG Version: 6.00 Build 0)  -->
<svg version="1.1" id="图层_1" xmlns="http://www.w3.org/2000/svg" xmlns:xlink="http://www.w3.org/1999/xlink" x="0px" y="0px"
	 viewBox="0 0 100 100" style="enable-background:new 0 0 100 100;" xml:space="preserve">
<g>
	<circle cx="50" cy="50" r="30"/>
	<path d="M45.9,85.3V100h11.4V85.3c-1.8,0.3-3.7,0.5-5.6,0.5C49.8,85.8,47.8,85.6,45.9,85.3z"/>
	<path d="M57.3,14.7V0H45.9v14.7c1.8-0.3,3.7-0.5,5.6-0.5C53.4,14.2,55.4,14.4,57.3,14.7z"/>
	<path d="M83,29.7l9.5-10.5l-8.1-8.9l-9.5,10.5C78,23.2,80.7,26.2,83,29.7z"/>
	<path d="M19.2,73.2L9.7,83.8l8.1,8.9l9.5-10.5C24.2,79.8,21.5,76.8,19.2,73.2z"/>
	<path d="M28.2,20.7l-10.5-9.5l-8.9,8.1l10.5,9.5C21.7,25.7,24.7,23,28.2,20.7z"/>
	<path d="M74,84.6l10.5,9.5l8.9-8.1l-10.5-9.5C80.5,79.6,77.5,82.3,74,84.6z"/>
	<path d="M12.8,50c0-2.2,0.1-4.3,0.4-6.3H0.1v12.6h13.2C12.9,54.3,12.8,52.1,12.8,50z"/>
	<path d="M87.2,50c0,2.2-0.1,4.3-0.4,6.3h13.1V43.7H86.8C87.1,45.7,87.2,47.9,87.2,50z"/>
</g>
</svg>
