<?xml version="1.0" encoding="utf-8"?>
<!-- Generator: Adobe Illustrator 25.4.1, SVG Export Plug-In . SVG Version: 6.00 Build 0)  -->
<svg version="1.1" id="图层_1" xmlns="http://www.w3.org/2000/svg" xmlns:xlink="http://www.w3.org/1999/xlink" x="0px" y="0px"
	 viewBox="0 0 100 100" style="enable-background:new 0 0 100 100;" xml:space="preserve">
<style type="text/css">
	.st0{fill:#050000;}
</style>
<path class="st0" d="M95.8,89.3c2.3,0,4.2,2,4.2,4.4c0,2.4-1.9,4.4-4.2,4.4H4.2C1.9,98,0,96,0,93.6c0-2.4,1.9-4.4,4.2-4.4H95.8
	L95.8,89.3z M50,50c13.4,0,24.5,11.1,25,25.2l0,1c0,2.4-1.9,4.4-4.2,4.4c-2.3,0-4.2-2-4.2-4.4c0-4.6-1.8-9.1-4.9-12.3
	c-3.1-3.3-7.4-5.1-11.8-5.1c-4.4,0-8.7,1.8-11.8,5.1c-2.9,3-4.6,7-4.9,11.3l0,1c0,2.4-1.9,4.4-4.2,4.4s-4.2-2-4.2-4.4
	C25,61.7,36.2,50,50,50z M12.5,71.8c2.3,0,4.2,2,4.2,4.4c0,2.4-1.9,4.4-4.2,4.4H4.2c-2.3,0-4.2-2-4.2-4.4c0-2.4,1.9-4.4,4.2-4.4
	C4.2,71.8,12.5,71.8,12.5,71.8z M95.8,71.8c2.3,0,4.2,2,4.2,4.4c0,2.4-1.9,4.4-4.2,4.4h-8.3c-2.3,0-4.2-2-4.2-4.4
	c0-2.4,1.9-4.4,4.2-4.4H95.8z M20.5,39.2l5.9,6.2c1.6,1.7,1.6,4.5-0.1,6.2c-1.6,1.6-4.2,1.6-5.8,0l-5.9-6.2
	c-1.7-1.7-1.7-4.4-0.1-6.2s4.2-1.8,5.9-0.1C20.5,39.1,20.5,39.2,20.5,39.2L20.5,39.2z M85.4,39.2c1.6,1.7,1.6,4.5,0,6.2l-5.9,6.2
	c-1.7,1.7-4.3,1.6-5.9-0.1c-1.6-1.7-1.6-4.4,0-6.1l5.9-6.2C81.1,37.5,83.7,37.5,85.4,39.2z M50,2c2.3,0,4.2,2,4.2,4.4v0v20
	l10.6-11.1c1.7-1.7,4.3-1.6,5.9,0.1c1.6,1.7,1.6,4.4,0,6.1L52.9,40l-0.3,0.3l0,0c-0.1,0.1-0.1,0.1-0.2,0.1l-0.2,0.1l-0.1,0
	c-0.3,0.2-0.6,0.3-0.9,0.4c0,0-0.1,0-0.1,0l-0.1,0l-0.1,0l-0.1,0c0,0-0.1,0-0.1,0l-0.1,0l-0.1,0l-0.1,0c0,0-0.1,0-0.1,0l-0.2,0h-0.2
	l-0.2,0l-0.1,0l-0.1,0c0,0-0.1,0-0.1,0l-0.1,0c-0.1,0-0.2,0-0.3-0.1c-0.1,0-0.2,0-0.3-0.1l-0.1,0c-0.2-0.1-0.4-0.2-0.6-0.3l-0.1-0.1
	c0,0,0,0-0.1,0l0,0c-0.1,0-0.1-0.1-0.2-0.1l-0.2-0.1l0,0v0l0,0l-0.1,0L47.1,40L29.4,21.5c-1.6-1.7-1.6-4.5,0.1-6.2
	c1.6-1.6,4.2-1.6,5.8,0l10.6,11.1v-20C45.8,4,47.7,2,50,2z"/>
</svg>
