<svg t="1591347684072" viewBox="0 0 1024 1024" version="1.1" xmlns="http://www.w3.org/2000/svg" p-id="9731">
  <path d="M512 0C229.23 0 0 229.23 0 512s229.23 512 512 512 512-229.23 512-512S794.77 0 512 0z m0 953.62C268.49 953.62 70.38 755.51 70.38 512S268.49 70.38 512 70.38 953.62 268.49 953.62 512 755.51 953.62 512 953.62z" p-id="9732" fill="#707070"></path>
  <path d="M771.1 726.4H514.8c-15.57 0-28.23 12.66-28.23 28.23s12.66 28.23 28.23 28.23h256.3c15.57 0 28.23-12.66 28.23-28.23s-12.67-28.23-28.23-28.23zM771.1 654.55H587.92c-15.56 0-28.23 12.66-28.23 28.23S572.35 711 587.92 711H771.1c15.57 0 28.23-12.66 28.23-28.23s-12.67-28.22-28.23-28.22zM771.1 582.69H654.22c-15.57 0-28.23 12.66-28.23 28.23s12.66 28.23 28.23 28.23H771.1c15.57 0 28.23-12.66 28.23-28.23s-12.67-28.23-28.23-28.23zM809.25 361.96c0-14.79-5.74-28.68-16.17-39.1L657.66 187.45c-10.43-10.43-24.32-16.17-39.1-16.17s-28.67 5.74-39.1 16.17L207.23 559.67c-5.06 5.06-7.88 12.06-7.72 19.21l3.61 172.49a26.32 26.32 0 0 0 25.8 25.83l172.6 3.81c0.22 0.01 0.44 0.01 0.67 0.01 6.95 0 13.76-2.82 18.66-7.73l372.22-372.22c10.43-10.43 16.18-24.32 16.18-39.11z m-53.5 1.79L391.5 727.99l-136.14-3-2.85-135.96 364.25-364.26c0.99-0.98 2.59-0.98 3.58-0.01l135.4 135.41c0.99 0.99 0.99 2.59 0.01 3.58z" p-id="9733" fill="#707070"></path>
</svg>