<?xml version="1.0" encoding="utf-8"?>
<!-- Generator: Adobe Illustrator 25.4.1, SVG Export Plug-In . SVG Version: 6.00 Build 0)  -->
<svg version="1.1" id="图层_1" xmlns="http://www.w3.org/2000/svg" xmlns:xlink="http://www.w3.org/1999/xlink" x="0px" y="0px"
	 viewBox="0 0 50 50" style="enable-background:new 0 0 50 50;" xml:space="preserve">
<path d="M46.9,39.5c-1-1.5-1.9-3.6-2.1-5.3c-0.5-3.5,0.5-5.3-1.7-8.8c-1.3-2.1-3.1-3.9-4.6-5.9c-3.8-5-2.4-10.1-5.2-15.3
	c-1-1.8-2.6-3.3-4.9-3.9c-2.6-0.7-5.8-0.4-8.2,0.8c-6.5,3.4-1.8,13.4-5.4,18.6c-2.3,3.2-4.8,6.1-6.1,9.8c-1.1,2.9-0.8,6.5-4.9,7.8
	c-1.1,0.3-2.8,0.3-3.4,1.3c-0.4,0.6-0.1,1.4,0.1,2c0.2,0.6,0.2,1.1,0.1,1.7C0.4,43.2,0.1,44,0,44.8c-0.1,0.8,0.6,1.4,1.4,1.7
	c3.1,1.2,7.5,1.9,10.9,2.4c4.4,0.7,3.9-0.4,7.7-1.3c2.6-0.6,5.9-0.8,8.5-0.4c2.8,0.4,4.8,2.5,7.4,2.7c2.2,0,13.9-5.1,14-7.3
	C50.1,40.7,47.8,40.8,46.9,39.5L46.9,39.5z M28.9,6.9c2.3,1.4-0.1,5.6-1,4.9c2.8-1.8-2.3-4.6-1.9-0.7C22.5,10.5,25.8,5,28.9,6.9z
	 M28.6,13.5c0.1,1.6-4.3,2.7-5.6,3.2c-5.3,0-3.6-4.6,0.5-5C24.3,11.6,28.6,12.5,28.6,13.5L28.6,13.5z M18.7,7.5
	c2.8-1.6,4.6,2.4,2.2,3.7c1.1-4.9-5.3-0.7-0.8,0.6C18.3,13.5,17,8.5,18.7,7.5L18.7,7.5z M14.9,48.3c-2.5-0.6-12-1.6-13.3-3.6
	c0,0,0-0.1,0-0.3c0,0,0,0,0,0c-0.1-0.1,0-0.5,0.1-0.9c0.1-1.1,0.4-2.6,0.4-2.8C3,39.2,3,39.5,3.6,39.3c0.4-0.2,0.9-0.4,1.8-1.1
	c2.5-1.8,3.3-2.8,4.7-2.1c0.6,0.2,1.1,0.6,1.7,1.4c0.2,0.2,0.4,0.4,0.6,0.6c1.1,1.2,3.7,4,4.6,6.4C17.8,46.2,17.8,47.7,14.9,48.3
	L14.9,48.3z M34.1,35.3c-1.1,2.4-0.1,4.6-2.3,6.7c-3.9,3.6-11.1,3.4-14.6,0.1c4.1-1.4-5.3-7.6-5.6-10.1C11,26.5,17,20.8,18.4,15.5
	c5.1,4.6,8.3-1.9,12.6,1.2c3.3,2.4,6.8,11.9,5.8,15.5C36.2,34.2,34.7,34.2,34.1,35.3z M41,46.4c-10.6,5.3-4.6-8.2-4.4-10
	c0.7,5.8,4.9,1,7.3,0.4c-1.2,0.3,3.8,5.4,3.8,4.8C47.9,43.9,43.5,45.1,41,46.4z"/>
</svg>
