<?xml version="1.0" encoding="utf-8"?>
<!-- Generator: Adobe Illustrator 25.4.1, SVG Export Plug-In . SVG Version: 6.00 Build 0)  -->
<svg version="1.1" id="sun" xmlns="http://www.w3.org/2000/svg" xmlns:xlink="http://www.w3.org/1999/xlink" x="0px" y="0px"
	 viewBox="0 0 100 100" style="enable-background:new 0 0 100 100;" xml:space="preserve">
<g>
	<path d="M75.7,34.9c-5.3-8.7-15.2-14-25.7-14c-5.2,0-10.3,1.3-14.8,3.8C21,32.4,16.1,49.5,24.3,63C29.6,71.6,39.4,77,50,77
		c5.2,0,10.3-1.3,14.8-3.8c6.9-3.8,11.8-9.8,13.8-17C80.7,48.9,79.7,41.4,75.7,34.9z M74.9,55.3c-1.8,6.3-6,11.5-12,14.8
		c-3.9,2.1-8.4,3.3-12.9,3.3c-9.2,0-17.8-4.7-22.4-12.2c-7.1-11.6-2.9-26.6,9.4-33.3c3.9-2.2,8.4-3.3,12.9-3.3
		c9.2,0,17.7,4.7,22.4,12.2C75.8,42.4,76.7,48.9,74.9,55.3z"/>
	<path d="M99.7,21.8c-0.5-0.9-1.8-1.2-2.7-0.7l-16,8.7c-0.9,0.5-1.2,1.7-0.7,2.5c0.4,0.6,1,0.9,1.7,0.9c0.3,0,0.7-0.1,1-0.3l16-8.7
		C99.9,23.8,100.3,22.7,99.7,21.8z"/>
	<path d="M0.3,76.1C0.6,76.7,1.3,77,2,77c0.3,0,0.7-0.1,1-0.3L19,68c0.9-0.5,1.3-1.7,0.7-2.5c-0.5-0.9-1.7-1.2-2.7-0.7L1,73.6
		C0,74.1-0.3,75.2,0.3,76.1z"/>
	<path d="M68.5,20.5c0.7,0,1.3-0.3,1.7-0.9l4.6-7.6c0.5-0.9,0.2-2-0.7-2.5c-0.9-0.5-2.1-0.2-2.7,0.7l-4.6,7.6
		c-0.5,0.9-0.2,2,0.7,2.5C67.8,20.4,68.2,20.5,68.5,20.5z"/>
	<path d="M29.8,78.3l-4.6,7.6c-0.5,0.9-0.2,2,0.7,2.5c0.3,0.2,0.6,0.3,1,0.3c0.7,0,1.3-0.3,1.7-0.9l4.6-7.6c0.5-0.9,0.2-2-0.7-2.5
		C31.5,77.1,30.4,77.4,29.8,78.3z"/>
	<path d="M31.5,20.5c0.3,0,0.7-0.1,1-0.3c0.9-0.5,1.3-1.7,0.7-2.5l-4.6-7.6C28,9.3,26.8,9,25.9,9.5C25,10,24.7,11.1,25.2,12l4.6,7.6
		C30.2,20.2,30.8,20.5,31.5,20.5z"/>
	<path d="M67.5,77.6c-0.9,0.5-1.2,1.7-0.7,2.5l4.6,7.6c0.3,0.6,1,0.9,1.7,0.9c0.3,0,0.7-0.1,1-0.3c1-0.5,1.3-1.7,0.7-2.5l-4.6-7.6
		C69.6,77.4,68.4,77.1,67.5,77.6z"/>
	<path d="M13,50.8c1.1,0,2-0.8,2-1.8s-0.9-1.9-2-1.9H3.8c-1.1,0-2,0.8-2,1.9s0.9,1.8,2,1.8C3.8,50.8,13,50.8,13,50.8z"/>
	<path d="M96.2,47.1H87c-1.1,0-2,0.8-2,1.9s0.9,1.8,2,1.8l0,0h9.2c1.1,0,2-0.8,2-1.8S97.3,47.1,96.2,47.1L96.2,47.1z"/>
	<path d="M52,14V-3.5c0-1-0.9-1.9-2-1.9s-2,0.8-2,1.9V14c0,1,0.9,1.9,2,1.9S52,15,52,14z"/>
	<path d="M48,83.9v17.5c0,1,0.9,1.9,2,1.9c1.1,0,2-0.9,2-1.9V83.9c0-1-0.9-1.9-2-1.9C48.9,82,48,82.9,48,83.9z"/>
	<path d="M19,29.9l-16-8.7c-0.9-0.5-2.1-0.2-2.7,0.7c-0.5,0.9-0.2,2,0.7,2.5l16,8.7c0.3,0.2,0.6,0.3,1,0.3c0.7,0,1.3-0.3,1.7-0.9
		C20.2,31.5,19.9,30.4,19,29.9z"/>
	<path d="M99,73.6l-16-8.7c-0.9-0.5-2.1-0.2-2.7,0.7c-0.5,0.9-0.2,2,0.7,2.5l16,8.7c0.3,0.2,0.6,0.3,1,0.3c0.7,0,1.3-0.3,1.7-0.9
		C100.3,75.2,100,74.1,99,73.6z"/>
</g>
</svg>
