<?xml version="1.0" encoding="utf-8"?>
<!-- Generator: Adobe Illustrator 25.4.1, SVG Export Plug-In . SVG Version: 6.00 Build 0)  -->
<svg version="1.1" id="cloud" xmlns="http://www.w3.org/2000/svg" xmlns:xlink="http://www.w3.org/1999/xlink" x="0px" y="0px"
	 viewBox="0 0 100 56.2" style="enable-background:new 0 0 100 56.2;" xml:space="preserve">
<path d="M91.8,40.1h-3.3c-1,0-1.8-0.8-1.8-1.8c0-8.2-6.7-14.9-14.9-14.9c-1.2,0-2.3,0.2-3.6,0.4c-0.5,0.1-1,0-1.4-0.3
	c-0.4-0.2-0.7-0.7-0.8-1.2C63.2,9.4,51.6,0,38.3,0C23.5,0,11.1,11.6,10.1,26.4c0,0.7-0.5,1.3-1.1,1.5c-5.5,2.3-9,7.7-9,13.7
	c0,8.2,6.7,14.9,14.9,14.9h76.9c4.5,0,8.2-3.7,8.2-8.2S96.3,40.1,91.8,40.1z"/>
</svg>
