<?xml version="1.0" encoding="utf-8"?>
<!-- Generator: Adobe Illustrator 25.4.1, SVG Export Plug-In . SVG Version: 6.00 Build 0)  -->
<svg version="1.1" id="图层_1" xmlns="http://www.w3.org/2000/svg" xmlns:xlink="http://www.w3.org/1999/xlink" x="0px" y="0px"
	 viewBox="0 0 100 100" style="enable-background:new 0 0 100 100;" xml:space="preserve">
<style type="text/css">
	.st0{fill:#131415;}
</style>
<path class="st0" d="M39.5,0c-0.9,3.5-1.3,7.2-1.3,10.8c0,25,20.3,45.3,45.3,45.3c5.8,0,11.4-1.1,16.5-3.1
	c-2.1,25.8-23.6,46-49.9,46C22.4,99,0,76.6,0,49C0,24.9,16.9,4.9,39.5,0z M31,10.5l-0.2,0.1C16.6,17.7,7.2,32.4,7.2,49
	c0,23.7,19.2,42.9,42.9,42.9c18.7,0,34.7-12,40.6-28.8l0.1-0.3L90,62.9c-1.7,0.2-3.5,0.3-5.2,0.4h-1.3c-28.7,0-52-23-52.5-51.6v-0.9
	V10.5z M76.3,8.4c2,0,3.6,1.6,3.6,3.6v7.2H87c2,0,3.6,1.6,3.6,3.6S89,26.4,87,26.4h-7.2v7.2c0,2-1.6,3.6-3.6,3.6s-3.6-1.6-3.6-3.6
	v-7.2h-7.2c-2,0-3.6-1.6-3.6-3.6s1.6-3.6,3.6-3.6h7.2V12C72.7,10,74.3,8.4,76.3,8.4z"/>
</svg>
