<svg t="1591347848063" viewBox="0 0 1024 1024" version="1.1" xmlns="http://www.w3.org/2000/svg" p-id="12288">
  <path d="M512 0C229.23 0 0 229.23 0 512s229.23 512 512 512 512-229.23 512-512S794.77 0 512 0z m0 953.62C268.49 953.62 70.38 755.51 70.38 512S268.49 70.38 512 70.38 953.62 268.49 953.62 512 755.51 953.62 512 953.62z" p-id="9732" fill="#707070"></path>
  <path d="M515.541449 7.082899c-280.359429 0-508.458551 228.120391-508.458551 508.458551s228.120391 508.458551 508.458551 508.458551 508.458551-228.120391 508.458551-508.458551S795.900879 7.082899 515.541449 7.082899zM515.541449 981.864196c-257.132626 0-466.301477-209.190121-466.301477-466.322747 0-257.132626 209.168851-466.322747 466.301477-466.322747s466.301477 209.190121 466.301477 466.322747S772.674075 981.864196 515.541449 981.864196zM614.574414 524.177056 614.574414 524.177056c47.751075-31.96876 79.230625-86.398604 79.230625-148.187857 0-98.437405-79.804915-178.24232-178.24232-178.24232-98.437405 0-178.24232 79.804915-178.24232 178.24232 0 61.810523 31.479551 116.219097 79.251895 148.187857-100.266622 39.519598-171.244501 137.170014-171.244501 251.453545 0 0.23397 0 0.446669 0.02127 0.659369 0 0.04254-0.02127 0.10635-0.02127 0.14889 0 15.612155 12.65563 28.246516 28.267786 28.246516 15.590885 0 21.886796-12.63436 21.886796-28.246516 0-0.340319-0.08508-0.659369-0.10635-1.020958 0.10635-118.005774 102.159649-219.995264 220.207964-219.995264 118.112124 0 220.207964 102.095839 220.207964 220.207964 0 0.14889-1.467628 29.054774 21.971875 29.054774 15.505806 0 28.076356-12.57055 28.076356-28.055086 0-0.06381-0.02127-0.12762-0.02127-0.2127 0-0.25524 0.02127-0.510479 0.02127-0.786989C785.797645 661.34707 714.798496 563.696654 614.574414 524.177056zM515.541449 510.734437c-74.402343 0-134.723968-60.321625-134.723968-134.723968 0-74.423613 60.321625-134.723968 134.723968-134.723968 74.423613 0 134.723968 60.321625 134.723968 134.723968S589.943792 510.734437 515.541449 510.734437z" p-id="12289" fill="#707070"></path>
</svg>