<?xml version="1.0" encoding="utf-8"?>
<!-- Generator: Adobe Illustrator 25.4.1, SVG Export Plug-In . SVG Version: 6.00 Build 0)  -->
<svg version="1.1" id="图层_1" xmlns="http://www.w3.org/2000/svg" xmlns:xlink="http://www.w3.org/1999/xlink" x="0px" y="0px"
	 viewBox="0 0 50 50" style="enable-background:new 0 0 50 50;" xml:space="preserve">
<path d="M33.8,28.8c-1.8,0-3.2,1.6-3.2,3.7c0,2,1.4,3.7,3.2,3.7c1.8,0,3.2-1.6,3.2-3.7C37,30.4,35.6,28.8,33.8,28.8 M33.8,39.6
	c-3.5,0-6.3-3.2-6.3-7.2c0-4,2.8-7.2,6.3-7.2c3.5,0,6.3,3.2,6.3,7.2C40.2,36.4,37.3,39.6,33.8,39.6 M37.7,44.6
	C37.7,44.6,37.7,44.7,37.7,44.6l0.1,0l3.1-1.9c-0.1-0.2-0.4-1.1-0.4-2.1c0-3,2-5.4,4.6-5.5c0-0.2,0.2-1.5,0.2-2.5
	c0-1-0.2-2.3-0.2-2.5c-2.6-0.2-4.6-2.6-4.6-5.5c0-1,0.3-1.9,0.4-2.1l-3-1.9l0,0c0,0-0.1,0-0.1,0c-0.3,0.4-0.7,0.7-1.1,1.1
	c-0.9,0.7-1.8,1.1-2.6,1.1c-0.8,0-1.7-0.4-2.6-1.1c-0.4-0.3-0.8-0.7-1.1-1.1c0,0-0.1,0-0.1,0h0l-3.1,2c0.1,0.2,0.4,1.1,0.4,2.1
	c0,3-2,5.4-4.6,5.5c0,0.2-0.2,1.5-0.2,2.5c0,1,0.2,2.3,0.2,2.5c2.6,0.2,4.6,2.6,4.6,5.5c0,1-0.3,1.9-0.4,2.1l3,1.9h0
	c0,0,0.1,0,0.1,0c0.3-0.4,0.7-0.8,1.1-1.1c0.9-0.8,1.9-1.2,2.7-1.2c0.8,0,1.7,0.4,2.7,1.2C37.2,44,37.6,44.6,37.7,44.6 M38.6,49.9
	c-0.6,0-1.2-0.3-1.5-0.7c-0.5-0.6-2.1-2.3-3.4-2.3c-1.3,0-2.9,1.6-3.4,2.2c-0.4,0.5-0.9,0.7-1.5,0.7c-0.3,0-0.5-0.1-0.8-0.2l0,0
	l-4-2.5l0,0c-0.7-0.6-1-1.7-0.6-2.6c0,0,0.4-1,0.4-1.8c0-2.6-1.9-4.8-4.2-4.8h-0.2c-0.7,0-1.2-0.7-1.4-1.7c0-0.1-0.3-2.1-0.3-3.6
	c0-1.6,0.3-3.5,0.3-3.6c0.2-1.1,0.7-1.7,1.4-1.7h0.1c2.3,0,4.2-2.2,4.2-4.8c0-0.9-0.4-1.8-0.4-1.8c-0.4-0.9-0.1-2,0.6-2.6l0,0
	l4.2-2.6l0,0c0.2-0.1,0.5-0.2,0.8-0.2c0.6,0,1.2,0.3,1.5,0.7c0.5,0.6,2.1,2.1,3.3,2.1c1.3,0,2.8-1.5,3.3-2.1
	c0.4-0.4,0.9-0.7,1.5-0.7c0.3,0,0.5,0.1,0.8,0.2l0,0l4.1,2.6l0,0c0.7,0.6,1,1.7,0.6,2.6c0,0-0.4,1-0.4,1.8c0,2.6,1.9,4.8,4.2,4.8
	h0.1c0.7,0,1.2,0.7,1.4,1.7c0,0.1,0.3,2.1,0.3,3.6c0,1.6-0.3,3.5-0.3,3.6c-0.2,1.1-0.7,1.7-1.4,1.7h-0.1c-2.3,0-4.2,2.2-4.2,4.8
	c0,0.9,0.4,1.8,0.4,1.8c0.4,0.9,0.1,2-0.6,2.6l0,0l-4.1,2.6l0,0C39.2,49.9,38.9,49.9,38.6,49.9L38.6,49.9z M48.2,15.5
	c0,1.3-0.9,2.4-2.1,2.4c-1.2,0-2.1-1.1-2.1-2.4V6c0-0.7-0.5-1.2-1-1.2H5.2c-0.6,0-1,0.5-1,1.2v28.6c0,0.7,0.5,1.2,1,1.2h9.4
	c1.2,0,2.1,1.1,2.1,2.4c0,1.3-0.9,2.4-2.1,2.4H2.1c-1.2,0-2.1-1.1-2.1-2.4c0,0,0,0,0,0V2.4C0,1.1,0.9,0,2.1,0h44
	c1.2,0,2.1,1.1,2.1,2.4c0,0,0,0,0,0L48.2,15.5L48.2,15.5z M9.4,47.6c0-1.3,0.9-2.4,2.1-2.4h8.4c1.2,0,2.1,1.1,2.1,2.4
	c0,1.3-0.9,2.4-2.1,2.4l0,0h-8.4C10.4,50,9.4,48.9,9.4,47.6C9.4,47.6,9.4,47.6,9.4,47.6L9.4,47.6z"/>
</svg>
