<?xml version="1.0" encoding="utf-8"?>
<!-- Generator: Adobe Illustrator 25.4.1, SVG Export Plug-In . SVG Version: 6.00 Build 0)  -->
<svg version="1.1" id="图层_1" xmlns="http://www.w3.org/2000/svg" xmlns:xlink="http://www.w3.org/1999/xlink" x="0px" y="0px"
	 viewBox="0 0 50 50" style="enable-background:new 0 0 50 50;" xml:space="preserve">
<path d="M20.1,25c-2.3-1.3-4.6-2-6.7-2c-0.3,0-0.6,0-0.9,0c-2.7,0.3-5.2,1.1-6.8,1.7c-0.4,0.2-0.9,0.4-1.3,0.6L0,42.3
	c3-1.2,5.7-1.9,8.1-1.9c3.9,0,6.8,1.7,9.2,3.4c1.1-4.3,3.8-14.5,4.6-17.6C21.3,25.8,20.7,25.4,20.1,25L20.1,25z M25.8,29.3
	l-4.4,17.2c1.3,0.8,5.7,3.5,9.1,3.5c2.7,0,5.8-0.8,9.3-2.4L44,31.1c-2.9,1-5.6,1.6-8.2,1.6C31.2,32.7,27.9,31,25.8,29.3L25.8,29.3z
	 M14.3,17.2c3.8,0,6.6,1.7,8.9,3.3l4.5-17.4c-1-0.6-3.5-2.1-5.3-2.7C21.2,0.2,20,0,18.6,0c-2.5,0.1-5.3,0.8-8.4,2.2l-4.3,17
	C9.1,17.8,11.8,17.2,14.3,17.2C14.3,17.2,14.3,17.2,14.3,17.2L14.3,17.2z M50,7.8c-2.9,1.2-5.7,1.9-8.4,1.9c-4.5,0-7.8-1.7-9.9-3.4
	l-4.5,17.4c3,2.2,6.3,3.3,9.7,3.3c2.8,0,5.7-0.7,8.6-2.2l0-0.1l0.2,0L50,7.8L50,7.8z"/>
</svg>
