<?xml version="1.0" encoding="utf-8"?>
<!-- Generator: Adobe Illustrator 25.4.1, SVG Export Plug-In . SVG Version: 6.00 Build 0)  -->
<svg version="1.1" id="图层_1" xmlns="http://www.w3.org/2000/svg" xmlns:xlink="http://www.w3.org/1999/xlink" x="0px" y="0px"
	 viewBox="0 0 100 100" style="enable-background:new 0 0 100 100;" xml:space="preserve">
<style type="text/css">
	.st0{fill:#3D3D3D;}
</style>
<path class="st0" d="M75.9,33.4c2.1,0,4.1,0,6.2,0l1.1,0c10.9-0.1,18.4,8.8,16.5,19.6l-6,33.8c-1.3,7.4-8.3,13.2-15.8,13.2L22.2,100
	c-3.1,0-5.5-2.5-5.6-5.5l-0.1-50c0-3,2.4-5.5,5.5-5.6l0.4,0c0.7,0,1.5,0,2.6,0C37,39,47.3,27.6,47.2,16.6C47.2,5.3,52.4,0.1,61.1,0
	c8.1-0.1,13.9,7.8,14,19.4c0,3.5-0.8,9.5-1.9,14C74,33.4,74.9,33.4,75.9,33.4L75.9,33.4z M11.1,41.6l0.1,55.6c0,1.5-1.2,2.8-2.8,2.8
	c0,0,0,0,0,0H2.8C1.3,100,0,98.8,0,97.2c0,0,0,0,0,0l0-55.6c0-1.5,1.2-2.8,2.8-2.8c0,0,0,0,0,0h5.5C9.8,38.9,11.1,40.1,11.1,41.6z"
	/>
</svg>
